<svg version="1.1" xmlns="http://www.w3.org/2000/svg" viewBox="0 0 2048 2048">
<path fill="rgb(0,0,0)" d="M 496.627 156.434 C 521.665 153.859 555.887 155.713 581.775 155.769 L 715.878 155.829 L 1142.56 155.808 L 1418.97 155.777 C 1475.95 155.763 1556.59 152.755 1610.52 162.886 C 1672.92 174.675 1730.86 203.473 1777.93 246.103 C 1847.25 309.08 1879.82 387.653 1883.66 480.374 C 1884.82 508.16 1884.28 537.718 1884.27 565.597 L 1884.3 706.699 L 1884.26 1169.7 L 1884.21 1441.25 L 1884.26 1520.91 C 1884.29 1557.35 1884.9 1586.49 1878.34 1622.7 C 1867.52 1682.13 1840.04 1737.27 1799.1 1781.7 C 1733.18 1854.02 1649.25 1887.83 1552.78 1892.24 L 1551.33 1892.35 C 1528.99 1893.94 1499.64 1893.19 1476.8 1893.17 L 1355.56 1893.13 L 966.603 1893.18 L 646.354 1893.18 L 556.41 1893.18 C 516.666 1893.17 479.227 1893.32 439.876 1886.42 C 378.525 1875.42 321.373 1847.79 274.659 1806.52 C 208.581 1748.38 168.964 1667.78 164.771 1580.13 C 163.385 1551.16 163.836 1522.19 163.849 1493.18 L 163.851 1356.49 L 163.87 923.704 L 163.869 625.016 L 163.837 538.361 C 163.819 498.065 163.294 467.878 170.16 427.819 C 179.609 371.036 204.673 318.002 242.547 274.651 C 310.672 197.668 395.255 162.307 496.627 156.434 z"/>
<path fill="rgb(7,208,149)" d="M 1701.58 452.107 C 1704.42 451.737 1703.48 451.78 1706.35 452.243 C 1708.27 456.201 1706.52 465.321 1705.9 470.281 C 1698.33 530.78 1689.6 591.139 1681.5 651.562 L 1673.81 709.303 C 1672.76 717.173 1671.42 739.519 1666 743.751 C 1659.68 740.52 1611.5 689.156 1602.65 680.042 C 1451.76 838.917 1299.98 996.939 1147.31 1154.1 L 1056.09 1249.63 C 1044.05 1262.37 998.361 1312.64 987.553 1318.83 C 973.077 1313.91 846.779 1212.09 826.095 1195.74 C 789.014 1222.23 749.808 1253.04 713.319 1280.63 C 631.603 1342.95 549.523 1404.79 467.083 1466.15 L 380.23 1529.75 C 373.381 1534.74 340.258 1561.09 334.042 1560.49 L 333.273 1558.7 C 334.469 1554.26 337.564 1551.75 340.801 1548.28 C 460.41 1411.17 582.3 1276.06 706.42 1143.02 L 766.125 1078.73 C 776.251 1067.84 797.743 1042.37 809.82 1036.9 C 820.551 1037.47 864.023 1073.5 875.444 1082.31 L 976.499 1160.63 C 992.087 1145.88 1018.3 1115.55 1033.59 1098.94 L 1146.66 976.241 L 1510.67 584.526 C 1498.52 577.853 1419.38 534.805 1416.84 528.903 L 1417.72 526.845 C 1420.51 524.529 1423.19 523.115 1426.75 522.235 C 1456.53 514.877 1486.56 507.26 1516.26 499.637 L 1701.58 452.107 z"/>
<path fill="rgb(7,208,149)" d="M 1563.99 805.85 C 1572 814.203 1590.82 848.822 1596.71 859.957 C 1653.32 968.565 1676.54 1091.49 1663.44 1213.26 C 1645.22 1378.21 1562.16 1529.15 1432.56 1632.8 C 1300.3 1737.92 1131.67 1786.15 963.833 1766.87 C 793.65 1746.65 638.611 1659.23 533.223 1524.09 C 525.752 1514.83 516.31 1501.93 510.188 1491.8 C 529.973 1477.57 549.809 1462.64 569.443 1448.14 C 586.126 1470.57 601.263 1490.16 620.378 1510.67 C 706.52 1603.52 820.815 1665.44 945.637 1686.9 C 1089.36 1711.32 1236.89 1677.69 1355.83 1593.4 C 1473.8 1510.08 1553.9 1383.37 1578.54 1241.07 C 1599.98 1114.1 1575.39 978.914 1500.31 873.075 C 1521.4 850.541 1542.63 828.132 1563.99 805.85 z"/>
<path fill="rgb(7,208,149)" d="M 1097.95 1283.91 C 1104.49 1284.04 1134.98 1289.02 1142.53 1290.12 C 1176.52 1295.35 1210.57 1300.15 1244.68 1304.52 C 1263.08 1339.3 1283.99 1388.73 1299.94 1425.08 C 1275.65 1461.33 1246.85 1495.37 1219.34 1529.24 C 1212.67 1537.47 1205.6 1545.79 1198.51 1553.63 C 1180.28 1555.11 1160.45 1556.01 1142.18 1556.98 C 1101.43 1557.59 1069.13 1556.41 1028.51 1553.9 C 1010.02 1533.88 991.678 1513.72 973.495 1493.41 C 962.118 1480.77 948.696 1466.47 938.213 1453.42 L 959.781 1399.11 C 964.187 1387.74 967.858 1374.31 974.307 1364.06 C 979.564 1355.7 1083.46 1292.22 1097.95 1283.91 z"/>
<path fill="rgb(7,208,149)" d="M 976.86 549.019 C 978.872 548.887 981.057 548.868 983.021 548.739 C 999.264 547.667 997.081 567.622 997.07 577.809 C 997.051 595.535 996.893 612.732 996.787 630.191 C 1005.62 630.384 1015.51 629.925 1024.23 629.926 C 1044.38 629.929 1057.44 629.61 1057.79 653.483 C 1058 667.633 1058.04 682.355 1058.04 696.575 L 1058.04 778.709 L 1057.96 1032.51 C 1032.52 1058.9 1007.12 1086.67 982.02 1113.5 L 976.614 1118.94 C 953.218 1100.35 929.654 1081.97 905.926 1063.8 L 905.927 771.903 L 905.908 685.759 C 905.907 674.682 903.107 642.434 911.828 635.758 C 923.434 626.872 953.965 630 968.954 630.086 C 968.936 607.61 967.482 582.404 969.246 560.109 C 969.692 554.466 972.677 552.1 976.86 549.019 z"/>
<path fill="rgb(7,208,149)" d="M 1227.28 384.325 C 1236.02 383.931 1244.23 384.533 1244.77 395.066 C 1245.94 418.041 1245.26 442.915 1245.1 465.865 C 1258.77 465.513 1291.17 462.076 1301.14 470.964 C 1309.29 478.226 1306.86 502.921 1306.84 514.307 L 1306.72 572.946 L 1306.76 765.825 C 1270.83 806.128 1229.84 848.193 1192.65 887.893 L 1153.8 929.281 L 1153.7 652.292 C 1153.71 596.185 1152.26 534.012 1153.96 478.396 C 1158.07 471.853 1159.97 470.284 1166.53 466.175 C 1178.74 464.946 1203.46 465.477 1216.68 465.417 C 1216.99 445.814 1216.53 426.189 1216.56 406.586 C 1216.58 395.566 1215.26 388.342 1227.28 384.325 z"/>
<path fill="rgb(7,208,149)" d="M 572.67 717.597 C 578.696 721.077 619.618 766.42 626.891 774.487 C 486.08 915.892 435.832 1117.46 497.727 1307.61 C 484.332 1321.66 471.035 1336.67 457.727 1350.97 L 440.847 1369.66 C 412.947 1303.37 397.623 1232.48 395.657 1160.59 C 392.436 993.529 457.387 837.608 572.67 717.597 z"/>
<path fill="rgb(7,208,149)" d="M 743.752 679.041 C 748.801 678.806 754.883 677.942 758.824 681.835 C 763.994 686.998 763.119 698.16 763.106 705.082 C 763.073 722.928 762.924 740.829 762.917 758.686 C 777.019 758.869 792.354 757.51 806.233 758.759 C 814.684 759.519 818.315 762.811 823.165 769.148 C 825.58 780.238 824.965 849.194 824.612 863.675 C 823.494 909.556 826.544 962.436 824.093 1007.48 C 818.492 1006.4 812.815 1005.49 807.09 1005.75 C 799.691 1006.09 792.736 1008.17 786.494 1012.16 C 771.038 1022.04 728.928 1071.21 713.347 1088.06 L 672.187 1132.15 C 670.95 1060.4 672.118 985.136 672.106 913.096 L 672.039 827.912 C 671.998 756.588 662.424 757.93 735.128 758.729 C 735.063 736.81 733.86 710.985 735.751 689.256 C 736.208 684 739.672 681.629 743.752 679.041 z"/>
<path fill="rgb(7,208,149)" d="M 1460.35 893.023 C 1466.89 899.572 1481.36 921.178 1485.98 928.757 C 1519.94 983.594 1538.31 1046.65 1539.11 1111.15 C 1523.04 1131.6 1501.77 1158.8 1484.33 1177.68 C 1468.19 1175.08 1436.98 1166.53 1420.76 1162.4 C 1407.03 1158.86 1393.28 1155.44 1379.49 1152.15 C 1361.28 1109.86 1344.32 1071.59 1324.78 1029.88 C 1370.32 984.994 1414.54 937.963 1460.35 893.023 z"/>
<path fill="rgb(7,208,149)" d="M 826.971 1250.94 C 867.064 1280.72 912.093 1314.59 951.08 1345.63 C 937.447 1376.44 924.989 1411.3 910.979 1441.09 L 829.25 1441.4 C 813.783 1441.44 798.595 1441.14 783.097 1441.52 C 775.88 1434.33 766.278 1422.79 759.391 1414.95 C 739.797 1392.72 720.675 1370.07 702.04 1347.02 C 707.509 1342.21 714.891 1336.75 720.825 1332.41 C 756.492 1306.28 790.93 1276.29 826.971 1250.94 z"/>
<path fill="rgb(7,208,149)" d="M 1300.56 1053.67 C 1306.11 1058.55 1345.07 1150.8 1349.11 1161.96 C 1319.01 1199.98 1282.56 1241.01 1250.23 1277.33 C 1222.67 1274.31 1195.18 1270.74 1167.76 1266.6 C 1146.95 1263.9 1125.16 1260.38 1104.33 1257.32 C 1109.46 1250.72 1119.76 1240.52 1125.74 1234.22 L 1166.69 1191.16 C 1210.73 1144.76 1255.36 1098.93 1300.56 1053.67 z"/>
<path fill="rgb(7,208,149)" d="M 1442.61 1385.03 C 1448.1 1389.28 1461.41 1403.54 1467.11 1409.41 C 1416.48 1496.87 1335.28 1562.59 1244.09 1604.06 C 1240.51 1602.7 1222.61 1569.61 1219.79 1564.22 C 1251.61 1522.54 1290.03 1479.81 1321.15 1437.25 C 1321.21 1437.16 1432.81 1389.08 1442.61 1385.03 z"/>
<path fill="rgb(7,208,149)" d="M 681.397 1362.91 C 687.165 1368.13 708.223 1393.77 714.673 1401.22 C 730.047 1418.95 747.985 1437.62 762.885 1455.36 C 762.512 1484.88 763.6 1514.4 766.144 1543.82 C 754.861 1545.58 742.785 1546.81 731.395 1548.17 L 708.666 1530.84 C 667.729 1498.16 636.894 1463.04 606.003 1421.18 C 630.647 1401.6 656.414 1382.13 681.397 1362.91 z"/>
<path fill="rgb(7,208,149)" d="M 1189.69 1577.52 L 1190.62 1577.33 C 1195.15 1579.6 1210.76 1609.96 1213.97 1616.37 C 1145.17 1644.03 1062.62 1651.42 989.243 1645.37 C 984.399 1645.07 979.713 1644.38 974.905 1643.75 C 970.665 1638.74 966.495 1632.54 962.665 1627.12 C 983.104 1610.56 1005.49 1593.77 1026.38 1577.52 C 1047.25 1578.5 1068.09 1579.81 1088.98 1580.26 C 1123.01 1580.99 1155.79 1579.42 1189.69 1577.52 z"/>
<path fill="rgb(7,208,149)" d="M 1538.72 1155.7 C 1540.39 1159.91 1538.74 1181.2 1538.35 1186.57 C 1533.52 1252.98 1513.85 1326.21 1481.15 1384.38 L 1471.63 1374.99 L 1461.53 1363.63 C 1480.5 1308.8 1495.82 1259.45 1499.27 1200.87 C 1512.12 1185.79 1525.61 1170.58 1538.72 1155.7 z"/>
<path fill="rgb(7,208,149)" d="M 779.52 1563.32 C 783.093 1563.15 798.367 1573.23 802.806 1575.88 C 844.691 1600.87 891.336 1617.29 938.19 1630.18 L 943.888 1639.53 C 938.704 1638.33 932.954 1637.26 927.7 1636.18 C 856.833 1618.37 820.946 1603.3 758.267 1566.75 C 765.156 1565.83 772.61 1564.46 779.52 1563.32 z"/>
</svg>
